# xmcd CD database file generated by LOLA_Freedb v0.9beta0
# 
# Track frame offsets:
#      150
#      17940
#      33381
#      48418
#      63209
#      80312
#      96407
#      110670
#      130796
#      146854
#      163990
#      178695
#      194495
#      210135
#      226675
#      240470
#      255097
#      270552
#      287930
#      306686
# 
# Disc length: 4320 seconds
# 
# Revision: 2 
# Processed by: cddbd v1.5.2PL0 Copyright (c) Steve Scherf et al.
# Submitted via: LOLA_Freedb v0.9beta0
# 
DISCID=1e10de14
DTITLE=Diverse - Fetenhits  Best of 2005
DYEAR=2005
DGENRE=Pop
TTITLE0=Tokio Hotel - Durch den Monsun
TTITLE1=Die Firma - Die Eine 2005
TTITLE2=Gwen Stefani  - Hollaback Girl
TTITLE3=Will Smith - Switch
TTITLE4=Sarah Connor  - From Zero To Hero
TTITLE5=K-Maro  - Crazy
TTITLE6=Arash - Boro Boro
TTITLE7=The Chemical Brothers - Galvanize
TTITLE8=Scooter - Hello! (Good To Be Back)
TTITLE9=Groove Coverage  - Holy Virgin
TTITLE10=Global Deejays  - What A Feeling (Flashdance)
TTITLE11=Ilona - Un Monde Parfait
TTITLE12=Vinylshakerz - One Night In Bangkok
TTITLE13=Us5 - Maria
TTITLE14=Dj Tomekk  - Jump, Jump (DJ Tomekk kommt)
TTITLE15=Papa A.P.  - Gasolina
TTITLE16=Pachanga - Loco
TTITLE17=Mustafa Sandal feat.Gentelman - Isyankar
TTITLE18=Nitty - Nasty Girl
TTITLE19=The Bosshoss  - Hey Ya!
EXTD=
EXTT0=
EXTT1=
EXTT2=
EXTT3=
EXTT4=
EXTT5=
EXTT6=
EXTT7=
EXTT8=
EXTT9=
EXTT10=
EXTT11=
EXTT12=
EXTT13=
EXTT14=
EXTT15=
EXTT16=
EXTT17=
EXTT18=
EXTT19=
PLAYORDER=
